<?xml version='1.0' encoding='UTF-8' standalone='no'?>
<!-- Created with Fritzing (http://www.fritzing.org/) -->
<svg xmlns="http://www.w3.org/2000/svg"  height="0.33in" viewBox="0 0 400 330" width="0.4in" x="0in" baseProfile="tiny" y="0in" xmlns:svg="http://www.w3.org/2000/svg" version="1.2">
    <desc>
        <referenceFile>generic_ic_dip_8_300mil_bread.svg</referenceFile>
    </desc>
    <g  id="breadboard">
        <rect  height="270" id="middle" width="400" x="0" y="30" fill="#303030"/>
        <rect  height="24.6" id="top" width="400" x="0" y="30" fill="#3D3D3D"/>
        <rect  height="24.6" id="bottom" width="400" x="0" y="275.4" fill="#000000"/>
        <polygon  id="right" points="400,30,392.5,54.6,392.5,275.4,400,300" fill="#141414"/>
        <polygon  id="left" points="0,30,7.5,54.6,7.5,275.4,0,300" fill="#1F1F1F"/>
        <polygon  id="left-upper-rect" points="50,115,7.5,114.6,5.6,135.8,5.6,165,50,165" fill="#1C1C1C"/>
        <polygon  id="left-lower-rect" points="7.5,215.5,50,215.5,50,165,5.6,165,5.6,194.2" fill="#383838"/>
        <path  id="slot" d="M5.6,135.8l0,58.3c14.7,-1.7,26.2,-14,26.2,-29.2C31.8,149.7,20.4,137.5,5.6,135.8z" fill="#262626"/>
        <path  id="cover" d="M7.5,54.6L7.5,114.5c23.8,4.5,41.9,25.3,41.9,50.4c0,25.1,-18,46,-41.9,50.5L7.5,215.5l50,0L57.5,54.6L7.5,54.6z" fill="#303030"/>
        <circle  cy="234.7" r="20.6" fill="#212121" cx="65"/>
        <text stroke="none"  id="label" x="65" text-anchor="start" font-size="80" y="165" fill="#e6e6e6" font-family="OCRA">IC</text>
        <rect  height="43.4" id="connector0pin" width="30" x="35" y="286.6" fill="#8C8C8C"/>
        <rect  height="30" id="connector0terminal" width="30" x="35" y="300" fill="#8C8C8C"/>
        <polygon  points="35,286.6,35,306.6,65,306.6,85,297.4,85,286.6" fill="#8C8C8C"/>
        <rect  height="43.4" id="connector7pin" width="30" x="35" fill="#8C8C8C"/>
        <rect  height="30" id="connector7terminal" width="30" x="35" fill="#8C8C8C"/>
        <polygon  points="85,43.4,85,32.6,65,23.4,35,23.4,35,43.4" fill="#8C8C8C"/>
        <rect  height="43.4" id="connector3pin" width="30" x="335" y="286.6" fill="#8C8C8C"/>
        <rect  height="30" id="connector3terminal" width="30" x="335" y="300" fill="#8C8C8C"/>
        <polygon  points="315,286.6,315,297.4,335,306.6,365,306.6,365,286.6" fill="#8C8C8C"/>
        <rect  height="43.4" id="connector4pin" width="30" x="335" y="0" fill="#8C8C8C"/>
        <rect  height="30" id="connector4terminal" width="30" x="335" y="0" fill="#8C8C8C"/>
        <polygon  points="365,43.4,365,23.4,335,23.4,315,32.6,315,43.4" fill="#8C8C8C"/>
        <rect  height="43.4" id="connector6pin" width="30" x="135" y="0" fill="#8C8C8C"/>
        <rect  height="30" id="connector6terminal" width="30" x="135" fill="#8C8C8C"/>
        <polygon  points="185,43.4,185,32.6,165,23.4,135,23.4,115,32.6,115,43.4" fill="#8C8C8C"/>
        <rect  height="43.4" id="connector5pin" width="30" x="235" y="0" fill="#8C8C8C"/>
        <rect  height="30" id="connector5terminal" width="30" x="235" fill="#8C8C8C"/>
        <polygon  points="285,43.4,285,32.6,265,23.4,235,23.4,215,32.6,215,43.4" fill="#8C8C8C"/>
        <rect  height="43.4" id="connector1pin" width="30" x="135" y="286.6" fill="#8C8C8C"/>
        <rect  height="30" id="connector1terminal" width="30" x="135" y="300" fill="#8C8C8C"/>
        <polygon  points="115,286.6,115,297.4,135,306.6,165,306.6,185,297.4,185,286.6" fill="#8C8C8C"/>
        <rect  height="43.4" id="connector2pin" width="30" x="235" y="286.6" fill="#8C8C8C"/>
        <rect  height="30" id="connector2terminal" width="30" x="235" y="300" fill="#8C8C8C"/>
        <polygon  points="215,286.6,215,297.4,235,306.6,265,306.6,285,297.4,285,286.6" fill="#8C8C8C"/>
    </g>
</svg>
